<svg width="60" height="60" viewBox="0 0 60 60" fill="none" xmlns="http://www.w3.org/2000/svg">
    <path d="M30 0C46.5701 0 60 13.4326 60 30C60 46.5701 46.5701 60 30 60C13.4326 60 0 46.5687 0 30C0 13.4326 13.4326 0 30 0Z" fill="#F5AC37"/>
    <path d="M31.0957 32.104H42.4952C42.7382 32.104 42.853 32.104 42.8705 31.7854C42.9637 30.6258 42.9637 29.4593 42.8705 28.2983C42.8705 28.0729 42.7585 27.9797 42.5141 27.9797H19.8272C19.5464 27.9797 19.4708 28.0729 19.4708 28.3361V31.6734C19.4708 32.104 19.4708 32.104 19.9203 32.104H31.0957ZM41.5975 24.0795C41.6299 23.9945 41.6299 23.9013 41.5975 23.8176C41.4071 23.4032 41.1817 23.0076 40.9198 22.6364C40.5256 22.0019 40.0612 21.4173 39.532 20.8922C39.2822 20.5749 38.9933 20.29 38.6693 20.0484C37.0466 18.6673 35.1174 17.6899 33.0438 17.1985C31.9975 16.9636 30.9283 16.8516 29.8564 16.861H19.788C19.5072 16.861 19.4694 16.9731 19.4694 17.2174V23.873C19.4694 24.1538 19.4694 24.2294 19.8258 24.2294H41.4625C41.4625 24.2294 41.6501 24.1916 41.6879 24.0795H41.5961H41.5975ZM41.5975 36.0042C41.2789 35.9691 40.9576 35.9691 40.639 36.0042H19.8461C19.5653 36.0042 19.4708 36.0042 19.4708 36.3795V42.8866C19.4708 43.1863 19.4708 43.2619 19.8461 43.2619H29.446C29.905 43.297 30.364 43.2646 30.8136 43.1687C32.2068 43.0688 33.5771 42.7664 34.8839 42.2683C35.3591 42.1036 35.8181 41.8889 36.2514 41.6311H36.3824C38.6329 40.4606 40.4608 38.6219 41.6137 36.3647C41.6137 36.3647 41.7446 36.0812 41.5975 36.0069V36.0042ZM15.7029 46.6356V46.5235V42.1549V40.6739V36.2675C15.7029 36.0231 15.7029 35.9867 15.4032 35.9867H11.3342C11.1088 35.9867 11.0156 35.9867 11.0156 35.687V32.1243H15.3654C15.6084 32.1243 15.7029 32.1243 15.7029 31.8057V28.2808C15.7029 28.0553 15.7029 28 15.4032 28H11.3342C11.1088 28 11.0156 28 11.0156 27.7003V24.4008C11.0156 24.1943 11.0156 24.1389 11.3153 24.1389H15.3465C15.6273 24.1389 15.7029 24.1389 15.7029 23.7825V13.6763C15.7029 13.3766 15.7029 13.301 16.0782 13.301H30.1399C31.1605 13.3415 32.1744 13.4536 33.1774 13.6385C35.2443 14.0206 37.2302 14.759 39.046 15.8134C40.2502 16.5222 41.3585 17.3781 42.3454 18.3636C43.0879 19.1344 43.7575 19.9687 44.3515 20.8571C44.9415 21.7575 45.4315 22.7201 45.8163 23.7258C45.8635 23.9877 46.1146 24.1646 46.3765 24.12H49.7327C50.1633 24.12 50.1633 24.12 50.1822 24.5331V27.6085C50.1822 27.9082 50.0702 27.9838 49.7691 27.9838H47.1811C46.9192 27.9838 46.8436 27.9838 46.8625 28.3213C46.9651 29.4634 46.9651 30.6096 46.8625 31.7517C46.8625 32.0703 46.8625 32.1081 47.2203 32.1081H50.1809C50.3118 32.2768 50.1809 32.4456 50.1809 32.6157C50.1998 32.833 50.1998 33.0531 50.1809 33.2704V35.5398C50.1809 35.8584 50.0877 35.9529 49.8056 35.9529H46.2618C46.0147 35.9057 45.7744 36.0636 45.7177 36.3093C44.874 38.5031 43.5239 40.47 41.7797 42.0469C41.1425 42.6206 40.4729 43.1606 39.7736 43.6588C39.023 44.0908 38.2926 44.5403 37.5231 44.8967C36.107 45.534 34.622 46.0038 33.0978 46.3021C31.6506 46.5613 30.1831 46.6788 28.7103 46.6585H15.6975V46.6396L15.7029 46.6356Z" fill="#FEFEFD"/>
</svg>
