<svg width="61" height="61" viewBox="0 0 61 61" fill="none" xmlns="http://www.w3.org/2000/svg">
<path fill-rule="evenodd" clip-rule="evenodd"
      d="M56.0643 30.1875C56.0643 44.1051 44.7818 55.3875 30.8643 55.3875C16.9467 55.3875 5.66426 44.1051 5.66426 30.1875C5.66426 16.2699 16.9467 4.9875 30.8643 4.9875C44.7818 4.9875 56.0643 16.2699 56.0643 30.1875ZM60.8643 30.1875C60.8643 46.756 47.4328 60.1875 30.8643 60.1875C14.2957 60.1875 0.864258 46.756 0.864258 30.1875C0.864258 13.619 14.2957 0.1875 30.8643 0.1875C47.4328 0.1875 60.8643 13.619 60.8643 30.1875ZM20.5425 24.1078L26.6222 30.1874L20.5425 36.2672C19.9567 36.853 19.9567 37.8028 20.5425 38.3885L22.6638 40.5098C23.2496 41.0956 24.1994 41.0956 24.7852 40.5098L30.8648 34.4301L36.9446 40.5099C37.5304 41.0956 38.4801 41.0956 39.0659 40.5099L41.1872 38.3885C41.773 37.8028 41.773 36.853 41.1872 36.2672L35.1074 30.1874L41.1869 24.1078C41.7727 23.522 41.7727 22.5722 41.1869 21.9865L39.0655 19.8652C38.4797 19.2794 37.53 19.2794 36.9442 19.8652L30.8648 25.9448L24.7852 19.8652C24.1994 19.2794 23.2496 19.2794 22.6638 19.8652L20.5425 21.9865C19.9567 22.5723 19.9567 23.522 20.5425 24.1078Z"
      fill="#F35252"/>
</svg>
