<svg width="61" height="61" viewBox="0 0 61 61" fill="none" xmlns="http://www.w3.org/2000/svg">
    <path fill-rule="evenodd" clip-rule="evenodd"
          d="M30.7744 55.3875C44.692 55.3875 55.9744 44.1051 55.9744 30.1875C55.9744 16.2699 44.692 4.9875 30.7744 4.9875C16.8568 4.9875 5.57441 16.2699 5.57441 30.1875C5.57441 44.1051 16.8568 55.3875 30.7744 55.3875ZM30.7744 60.1875C47.343 60.1875 60.7744 46.756 60.7744 30.1875C60.7744 13.619 47.343 0.1875 30.7744 0.1875C14.2059 0.1875 0.774414 13.619 0.774414 30.1875C0.774414 46.756 14.2059 60.1875 30.7744 60.1875ZM30.7741 14.2764L41.9954 25.4671C42.582 26.0521 42.5833 27.0018 41.9983 27.5884L39.8798 29.7126C39.2948 30.2992 38.3451 30.3005 37.7585 29.7155L30.7741 22.7501L23.7898 29.7155C23.2032 30.3005 22.2535 30.2992 21.6685 29.7126L19.55 27.5884C18.965 27.0018 18.9663 26.0521 19.5529 25.4671L30.7741 14.2764ZM41.9954 38.6782L30.7741 27.4875L19.5529 38.6782C18.9663 39.2632 18.965 40.213 19.55 40.7995L21.6685 42.9237C22.2535 43.5103 23.2032 43.5116 23.7898 42.9266L30.7741 35.9613L37.7585 42.9266C38.3451 43.5116 39.2948 43.5103 39.8798 42.9237L41.9983 40.7995C42.5833 40.213 42.582 39.2632 41.9954 38.6782Z"
          fill="#72D1A4" />
"/>
</svg>
