<svg width="14" height="14" viewBox="0 0 61 61" fill="none" xmlns="http://www.w3.org/2000/svg">
    <path d="M26.2285 37.0752C26.2285 34.7159 26.4952 32.8575 27.0284 31.5001C27.5617 30.1265 28.4262 28.9388 29.622 27.9369C30.8179 26.935 31.7228 26.022 32.3369 25.1978C32.9671 24.3575 33.2822 23.4365 33.2822 22.4346C33.2822 19.9945 32.2318 18.7744 30.1311 18.7744C29.1615 18.7744 28.3778 19.1299 27.7799 19.8409C27.1819 20.552 26.8668 21.5135 26.8345 22.7254H18.6416C18.6739 19.4935 19.692 16.9807 21.6958 15.187C23.6996 13.3771 26.5113 12.4722 30.1311 12.4722C33.7347 12.4722 36.5222 13.3044 38.4937 14.9688C40.4813 16.6333 41.4751 19.0006 41.4751 22.071C41.4751 23.4122 41.2085 24.6323 40.6752 25.7311C40.1419 26.83 39.2855 27.9531 38.1058 29.1004L35.3183 31.694C34.5265 32.4535 33.9771 33.2372 33.67 34.0452C33.363 34.837 33.1933 35.847 33.161 37.0752H26.2285ZM25.2347 44.4439C25.2347 43.2481 25.6629 42.2705 26.5194 41.511C27.392 40.7353 28.4747 40.3475 29.7675 40.3475C31.0602 40.3475 32.1349 40.7353 32.9913 41.511C33.8639 42.2705 34.3002 43.2481 34.3002 44.4439C34.3002 45.6397 33.8639 46.6255 32.9913 47.4011C32.1349 48.1606 31.0602 48.5404 29.7675 48.5404C28.4747 48.5404 27.392 48.1606 26.5194 47.4011C25.6629 46.6255 25.2347 45.6397 25.2347 44.4439Z" fill="#666666"/>
    <path fill-rule="evenodd" clip-rule="evenodd" d="M30.0586 55.5063C43.8657 55.5063 55.0586 44.3135 55.0586 30.5063C55.0586 16.6992 43.8657 5.50635 30.0586 5.50635C16.2515 5.50635 5.05859 16.6992 5.05859 30.5063C5.05859 44.3135 16.2515 55.5063 30.0586 55.5063ZM30.0586 60.5063C46.6271 60.5063 60.0586 47.0749 60.0586 30.5063C60.0586 13.9378 46.6271 0.506348 30.0586 0.506348C13.4901 0.506348 0.0585938 13.9378 0.0585938 30.5063C0.0585938 47.0749 13.4901 60.5063 30.0586 60.5063Z" fill="#666666"/>
</svg>
